<svg class="svg-icon" style="width: 1em; height: 1em;vertical-align: middle;fill: currentColor;overflow: hidden;" viewBox="0 0 1024 1024" version="1.1" xmlns="http://www.w3.org/2000/svg"><path d="M461.459419 639.703497c0 0-57.703213-20.769023-78.524424-80.238462-7.065929-21.195741-29.385261-35.595706-53.205782-35.595706l-112.512517 0c-31.154557 0-56.364729 25.318642-56.364729 56.525388 0 31.205723 25.210172 56.416917 56.364729 56.416917l88.48017 0.055259L177.338453 765.277494c-22.001083 22.052249-22.001083 57.809637 0 79.862909 22.052249 22.052249 57.861826 22.052249 79.915098 0l130.069381-130.070404-0.962931 90.13895c-0.74906 31.205723 24.62177 56.524364 55.828516 56.524364 31.153534 0 56.472176-25.318642 56.472176-56.524364l0-112.406093C498.659669 668.39291 483.13816 647.570675 461.459419 639.703497z"  /><path d="M713.947943 635.367749l90.191138 0.961908c31.154557 0.750083 56.421011-24.568559 56.421011-55.774281 0-31.152511-25.26543-56.471153-56.421011-56.471153l-112.51354 0c-24.353664 0-45.12371 15.416108-53.046147 37.147038 0 0-20.765953 57.648978-80.132038 78.472236-21.301142 7.277754-35.755342 29.440519-35.755342 53.31323l0 112.459305c0 31.151487 25.320689 56.418964 56.58167 56.418964 31.206746 0 56.417941-25.267477 56.417941-56.418964l0.157589-88.426959 128.250966 128.304178c22.107507 22.106484 57.917084 22.106484 79.917144 0 22.107507-21.998013 22.107507-57.862849 0-79.861886L713.947943 635.367749z"  /><path d="M560.540018 384.057049c0 0 57.754379 20.715811 78.576613 80.129992 7.119141 21.357424 29.386284 35.70213 53.314253 35.70213l112.351857 0c31.258934 0 56.525388-25.264407 56.525388-56.524364 0-31.152511-25.266453-56.471153-56.525388-56.471153l-88.320535 0 128.303154-128.358413c22.052249-22.052249 22.052249-57.809637 0-79.968309-22.053272-22.001083-57.808614-22.001083-79.912028 0l-130.127709 130.123616 0.964978-90.13895c0.799202-31.154557-24.5133-56.473199-55.724139-56.473199-31.258934 0-56.577576 25.317619-56.577576 56.473199l0 112.460328C523.388886 355.420849 538.912441 376.241037 560.540018 384.057049z"  /><path d="M160.046624 444.113867c0 31.207769 25.318642 56.473199 56.473199 56.473199l112.459305 0c24.354688 0 45.174875-15.523555 53.099359-37.095873 0 0 20.662599-57.70219 80.078827-78.576613 21.303188-7.120165 35.647895-29.440519 35.647895-53.206806l0-112.459305c0-31.206746-25.212218-56.472176-56.417941-56.472176-31.262004 0-56.473199 25.264407-56.473199 56.472176l-0.106424 88.373747-128.302131-128.35739c-22.107507-22.054295-57.916061-22.054295-79.916121 0-22.107507 22.158672-22.107507 57.861826 0 79.967286l130.122593 130.072451-90.193185-1.01819C185.365266 387.590526 160.046624 412.908144 160.046624 444.113867z"  /></svg>